<svg xmlns="http://www.w3.org/2000/svg" width="200" height="200" fill="none" xmlns:v="https://vecta.io/nano"><path d="M175 137.279c-4.843-5.174-10.185-9.568-15.812-13.112 5.556-3.543 10.897-8.008 15.741-13.182-6.339-3.189-12.892-5.528-19.373-6.945 3.988-5.245 7.478-11.269 10.327-17.718-7.051-.85-13.96-.78-20.584.071 1.994-6.308 3.205-13.111 3.561-20.198-6.908 1.63-13.461 3.969-19.302 7.016a85.41 85.41 0 0 0-3.561-20.198c-5.912 3.898-11.253 8.363-15.741 13.182-2.564-6.095-6.054-12.048-10.327-17.718-4.273 5.67-7.692 11.694-10.256 17.789-4.487-4.89-9.829-9.355-15.741-13.182-2.065 6.733-3.205 13.536-3.561 20.128-5.912-3.047-12.393-5.386-19.302-7.016.427 7.087 1.638 13.891 3.633 20.198-6.624-.85-13.533-.85-20.655 0 2.778 6.52 6.268 12.473 10.328 17.718-6.481 1.488-13.034 3.827-19.373 7.016 4.843 5.173 10.185 9.568 15.812 13.111-5.556 3.544-10.897 8.009-15.741 13.182 6.339 3.189 12.892 5.528 19.373 6.946-3.989 5.244-7.479 11.268-10.328 17.718 7.051.85 13.96.779 20.513 0-1.994 6.307-3.205 13.111-3.561 20.127 6.909-1.63 13.462-3.969 19.302-7.016.285 6.591 1.496 13.395 3.561 20.198 5.912-3.898 11.254-8.292 15.741-13.182C92.237 188.306 95.727 194.33 100 200c4.274-5.67 7.692-11.694 10.256-17.789 4.488 4.89 9.829 9.355 15.812 13.182 2.066-6.732 3.205-13.536 3.562-20.198 5.911 3.047 12.464 5.386 19.373 7.016-.427-7.087-1.638-13.82-3.633-20.127 6.553.85 13.533.85 20.584 0-2.777-6.521-6.267-12.474-10.327-17.718 6.481-1.559 13.034-3.898 19.373-7.087z" fill="#090"/><path d="M155.627 144.295c-3.704-4.819-7.906-9.072-12.465-12.544 5.485-1.701 10.827-4.324 16.026-7.584-5.199-3.26-10.541-5.811-16.026-7.512 4.559-3.473 8.69-7.725 12.465-12.615-5.983-1.347-11.895-1.914-17.664-1.63 3.063-4.82 5.556-10.206 7.336-16.088-6.054.779-11.823 2.268-17.165 4.465 1.211-5.599 1.709-11.481 1.353-17.647-5.413 2.835-10.327 6.166-14.53 10.064-.783-5.67-2.35-11.41-4.772-17.009-4.202 4.536-7.621 9.355-10.256 14.458-2.635-5.032-6.125-9.922-10.328-14.387-2.35 5.599-3.917 11.339-4.63 16.938-4.202-3.827-9.188-7.229-14.672-9.993-.285 6.095.214 12.048 1.424 17.647-5.271-2.197-11.04-3.614-17.165-4.394 1.852 5.812 4.345 11.198 7.407 16.017-5.698-.213-11.681.354-17.735 1.7 3.704 4.82 7.906 9.072 12.464 12.545-5.484 1.701-10.826 4.323-16.026 7.583 5.2 3.26 10.541 5.811 16.026 7.512-4.558 3.473-8.69 7.725-12.464 12.616 5.983 1.346 11.895 1.913 17.593 1.63-3.063 4.819-5.556 10.205-7.336 16.087 6.054-.779 11.895-2.267 17.165-4.464-1.211 5.528-1.709 11.481-1.424 17.576 5.484-2.835 10.399-6.166 14.601-9.993.783 5.67 2.35 11.41 4.701 17.009 4.131-4.536 7.621-9.355 10.256-14.387 2.636 5.032 6.126 9.922 10.328 14.387 2.35-5.599 3.917-11.339 4.701-17.009 4.202 3.827 9.188 7.229 14.672 9.993.285-6.095-.213-12.048-1.424-17.576 5.27 2.197 11.111 3.614 17.165 4.394-1.852-5.812-4.345-11.198-7.407-16.017 5.84.141 11.823-.426 17.806-1.772z" fill="#9c0"/><path d="M129.558 124.238c4.772-1.772 9.402-4.323 13.676-7.583-5.129-1.63-10.328-2.41-15.385-2.481 3.917-3.26 7.336-7.229 10.185-11.764-5.342.212-10.541 1.204-15.313 2.976 2.564-4.394 4.416-9.284 5.555-14.528-4.985 2.055-9.473 4.748-13.39 8.008.855-5.032.926-10.276.214-15.592-3.989 3.614-7.336 7.725-9.901 12.119-.925-5.032-2.635-9.993-5.128-14.741-2.421 4.748-4.202 9.639-5.057 14.6-2.564-4.394-5.912-8.434-9.9-12.048-.712 5.315-.641 10.56.214 15.592-3.917-3.26-8.476-5.953-13.461-7.938 1.14 5.245 2.992 10.135 5.556 14.528-4.772-1.701-9.972-2.693-15.313-2.906 2.92 4.536 6.339 8.434 10.185 11.765-5.128 0-10.328.851-15.456 2.481 4.273 3.26 8.832 5.811 13.675 7.512-4.772 1.772-9.402 4.323-13.675 7.583 5.128 1.56 10.328 2.41 15.385 2.481-3.917 3.26-7.336 7.229-10.256 11.765 5.342-.213 10.541-1.205 15.313-2.906-2.564 4.394-4.416 9.355-5.556 14.529 4.986-2.056 9.473-4.749 13.39-8.009-.855 5.032-.926 10.206-.214 15.521 3.989-3.614 7.336-7.654 9.9-12.048.926 5.032 2.635 9.922 5.128 14.67 2.493-4.748 4.202-9.638 5.128-14.67 2.564 4.394 5.912 8.434 9.9 12.048.713-5.315.641-10.56-.213-15.521 3.917 3.26 8.475 5.953 13.461 8.009-1.139-5.245-2.991-10.135-5.555-14.529 4.843 1.701 9.971 2.693 15.384 2.906-2.92-4.536-6.339-8.434-10.256-11.765 5.128 0 10.327-.851 15.456-2.481-4.345-3.331-8.904-5.882-13.676-7.583z" fill="#ff0"/><path d="M114.957 126.789c4.986 0 9.901-.921 14.53-2.622-4.701-1.701-9.544-2.622-14.53-2.622 4.701-1.701 8.975-4.252 12.75-7.442-4.986 0-9.901.78-14.602 2.481 3.847-3.189 6.98-7.016 9.473-11.34-4.701 1.701-8.974 4.111-12.82 7.3 2.493-4.323 4.131-9 4.986-13.82-3.847 3.19-7.052 6.946-9.616 11.269.855-4.89.784-9.851-.071-14.741-2.493 4.252-4.202 8.859-5.057 13.678-.855-4.89-2.635-9.568-5.128-13.82-.855 4.89-.926 9.851-.071 14.741-2.493-4.323-5.769-8.079-9.544-11.268.855 4.89 2.493 9.567 4.986 13.82-3.846-3.19-8.191-5.599-12.821-7.3 2.493 4.323 5.627 8.079 9.473 11.339-4.701-1.701-9.615-2.48-14.53-2.48 3.775 3.189 8.048 5.669 12.749 7.441-4.986 0-9.9.922-14.601 2.622 4.701 1.701 9.544 2.623 14.53 2.623-4.701 1.701-8.974 4.252-12.82 7.441 4.986 0 9.9-.779 14.601-2.48-3.846 3.189-6.98 7.016-9.473 11.339 4.701-1.701 9.046-4.11 12.821-7.3-2.493 4.324-4.131 9.001-4.986 13.891 3.846-3.189 7.051-6.945 9.544-11.197-.855 4.89-.783 9.851.071 14.67 2.493-4.252 4.273-8.93 5.128-13.749.854 4.89 2.635 9.497 5.128 13.82.855-4.89.926-9.78.071-14.671 2.493 4.324 5.769 8.08 9.544 11.198-.854-4.89-2.493-9.497-4.985-13.82 3.846 3.189 8.19 5.599 12.891 7.3-2.493-4.323-5.626-8.079-9.473-11.339 4.701 1.7 9.616 2.48 14.602 2.48-3.775-3.189-8.049-5.67-12.75-7.442z" fill="#fff"/><path d="M140.812 23.033c0 4.323-1.567 10.276-7.692 10.276-7.408 0-7.408-8.292-7.408-9.993s0-10.489 7.621-10.489c6.909-.071 7.479 7.583 7.479 10.206zM125.855 0h-4.986v31.751l-.143 4.748h4.773l.142-3.969c.499.78 1.14 1.701 2.564 2.693 2.279 1.559 4.63 1.701 5.912 1.701 3.632 0 7.194-1.559 9.33-4.536 1.354-1.701 2.564-4.536 2.564-9.639 0-5.811-1.78-8.434-3.134-9.922-2.421-2.764-5.769-3.402-8.404-3.402-6.054 0-7.977 3.331-8.69 4.536V0h.072zm28.703 24.096c0-2.339 0-10.702 7.906-10.702 5.841 0 7.265 4.961 7.265 9.709 0 1.914-.285 5.67-2.136 8.292-1.71 2.339-4.345 2.551-5.627 2.551-6.909-.071-7.408-6.662-7.408-9.851zm-4.7 22.537h4.914v-13.04c1.425 2.339 4.274 3.969 8.12 3.969 6.339 0 12.108-4.323 12.108-14.174 0-9.78-5.413-13.678-11.111-13.678-2.137 0-6.553.638-9.046 4.819l-.071-4.394h-4.986l.143 4.323-.071 32.176z" fill="#090"/></svg>