<svg xmlns="http://www.w3.org/2000/svg" width="400" height="536" fill="none" xmlns:v="https://vecta.io/nano"><path d="M400 367.906c-12.915-13.865-27.161-25.641-42.165-35.138 14.815-9.497 29.06-21.463 41.975-35.328-16.904-8.547-34.378-14.815-51.662-18.614 10.636-14.055 19.943-30.2 27.54-47.484-18.803-2.279-37.226-2.089-54.89.19 5.318-16.904 8.547-35.138 9.496-54.132-18.423 4.369-35.897 10.637-51.472 18.804-.949-17.664-3.988-35.898-9.496-54.132-15.765 10.447-30.01 22.413-41.976 35.328-6.837-16.334-16.144-32.289-27.54-47.484-11.396 15.195-20.513 31.34-27.35 47.674-11.966-13.105-26.211-25.071-41.976-35.328-5.508 18.044-8.547 36.278-9.496 53.942-15.765-8.167-33.049-14.435-51.472-18.804 1.14 18.994 4.368 37.228 9.687 54.132-17.664-2.279-36.087-2.279-55.081 0 7.407 17.474 16.714 33.429 27.54 47.484C34.378 283.005 16.904 289.273 0 297.82c12.916 13.865 27.161 25.641 42.165 35.138-14.815 9.497-29.06 21.463-41.975 35.328 16.904 8.547 34.378 14.815 51.662 18.614-10.636 14.055-19.943 30.2-27.54 47.484 18.803 2.279 37.227 2.089 54.701 0-5.318 16.904-8.547 35.138-9.497 53.942 18.424-4.369 35.897-10.636 51.472-18.804.759 17.664 3.988 35.898 9.496 54.132 15.765-10.446 30.01-22.222 41.976-35.328C179.297 504.66 188.604 520.805 200 536c11.396-15.195 20.513-31.34 27.35-47.674 11.966 13.106 26.211 25.072 42.166 35.328 5.508-18.044 8.547-36.278 9.496-54.132 15.765 8.168 33.239 14.435 51.662 18.804-1.139-18.994-4.368-37.038-9.686-53.942 17.474 2.279 36.087 2.279 54.89 0-7.407-17.474-16.714-33.429-27.54-47.484 17.284-4.179 34.758-10.446 51.662-18.994z" fill="#090"/><path d="M348.338 386.71c-9.876-12.916-21.083-24.312-33.238-33.619 14.625-4.558 28.87-11.586 42.735-20.323-13.865-8.737-28.11-15.575-42.735-20.133 12.155-9.307 23.172-20.703 33.238-33.809-15.954-3.608-31.719-5.128-47.103-4.368 8.167-12.916 14.814-27.351 19.563-43.116-16.145 2.09-31.529 6.078-45.774 11.966 3.229-15.005 4.558-30.769 3.608-47.294-14.434 7.598-27.54 16.525-38.746 26.971-2.089-15.195-6.268-30.58-12.726-45.585-11.206 12.156-20.322 25.072-27.35 38.747-7.027-13.485-16.334-26.591-27.54-38.557-6.268 15.005-10.447 30.39-12.346 45.395-11.206-10.256-24.501-19.373-39.126-26.781-.76 16.335.57 32.289 3.798 47.294-14.055-5.888-29.439-9.687-45.774-11.776 4.938 15.575 11.586 30.01 19.753 42.926-15.195-.57-31.149.949-47.294 4.558 9.877 12.916 21.083 24.312 33.238 33.619-14.625 4.558-28.87 11.586-42.735 20.323 13.865 8.737 28.11 15.575 42.735 20.133-12.156 9.307-23.172 20.703-33.238 33.809 15.955 3.609 31.719 5.128 46.914 4.368-8.167 12.916-14.815 27.351-19.563 43.116 16.144-2.089 31.719-6.078 45.774-11.966-3.228 14.815-4.558 30.77-3.798 47.104 14.625-7.597 27.73-16.524 38.936-26.781 2.089 15.195 6.268 30.58 12.536 45.585 11.016-12.156 20.323-25.072 27.35-38.557 7.028 13.485 16.334 26.591 27.541 38.557 6.267-15.005 10.446-30.39 12.535-45.585 11.206 10.257 24.502 19.374 39.126 26.781.76-16.334-.569-32.289-3.798-47.104 14.055 5.888 29.629 9.687 45.774 11.776-4.938-15.575-11.586-30.01-19.753-42.926 15.574.38 31.529-1.139 47.483-4.748z" fill="#9c0"/><path d="M278.822 332.958c12.726-4.748 25.072-11.586 36.468-20.323-13.676-4.369-27.541-6.458-41.026-6.648 10.446-8.737 19.563-19.373 27.161-31.529-14.246.57-28.111 3.229-40.836 7.977 6.837-11.776 11.776-24.882 14.815-38.937-13.296 5.508-25.262 12.726-35.708 21.463 2.279-13.485 2.469-27.541.57-41.786-10.636 9.687-19.563 20.703-26.401 32.479-2.469-13.485-7.027-26.781-13.675-39.507-6.458 12.726-11.206 25.832-13.485 39.127-6.838-11.776-15.765-22.602-26.401-32.289-1.899 14.245-1.71 28.301.57 41.786-10.447-8.737-22.602-15.955-35.898-21.273 3.039 14.055 7.977 27.161 14.815 38.937-12.725-4.558-26.591-7.217-40.836-7.787 7.788 12.156 16.904 22.602 27.161 31.529-13.675 0-27.54 2.279-41.216 6.648 11.396 8.737 23.552 15.575 36.468 20.133-12.726 4.749-25.072 11.586-36.468 20.323 13.675 4.179 27.541 6.458 41.026 6.648-10.446 8.737-19.563 19.374-27.35 31.53 14.245-.57 28.111-3.229 40.835-7.788-6.837 11.776-11.776 25.072-14.815 38.937 13.296-5.508 25.262-12.726 35.708-21.463-2.279 13.486-2.469 27.351-.57 41.596 10.636-9.686 19.563-20.513 26.401-32.289 2.469 13.486 7.027 26.591 13.675 39.317 6.648-12.726 11.206-25.831 13.675-39.317 6.838 11.776 15.765 22.603 26.401 32.289 1.899-14.245 1.709-28.3-.57-41.596 10.447 8.737 22.602 15.955 35.898 21.463-3.039-14.055-7.978-27.161-14.815-38.937 12.915 4.559 26.591 7.218 41.026 7.788-7.788-12.156-16.905-22.603-27.351-31.53 13.675 0 27.54-2.279 41.216-6.648-11.586-8.927-23.742-15.764-36.468-20.323z" fill="#ff0"/><path d="M239.886 339.796c13.295 0 26.401-2.469 38.746-7.028-12.535-4.558-25.451-7.027-38.746-7.027 12.536-4.559 23.932-11.397 33.998-19.944-13.295 0-26.401 2.09-38.936 6.648 10.256-8.547 18.613-18.804 25.261-30.39-12.536 4.559-23.932 11.017-34.188 19.564 6.648-11.586 11.016-24.122 13.295-37.038-10.256 8.547-18.803 18.614-25.641 30.2 2.279-13.106 2.089-26.401-.19-39.507-6.647 11.396-11.206 23.742-13.485 36.658-2.279-13.106-7.028-25.641-13.675-37.038-2.279 13.106-2.469 26.401-.19 39.507-6.648-11.586-15.385-21.653-25.451-30.2 2.279 13.106 6.647 25.642 13.295 37.038-10.256-8.547-21.842-15.005-34.188-19.564 6.648 11.586 15.005 21.653 25.261 30.39-12.535-4.558-25.641-6.648-38.746-6.648 10.066 8.548 21.462 15.195 33.998 19.944-13.295 0-26.401 2.469-38.937 7.027 12.536 4.559 25.452 7.028 38.747 7.028-12.536 4.558-23.932 11.396-34.188 19.943 13.295 0 26.401-2.089 38.936-6.648-10.256 8.548-18.613 18.804-25.261 30.39 12.536-4.558 24.122-11.016 34.188-19.563-6.648 11.586-11.016 24.122-13.295 37.227 10.256-8.547 18.803-18.613 25.451-30.01-2.279 13.106-2.089 26.402.19 39.317 6.647-11.396 11.396-23.932 13.675-36.847 2.279 13.105 7.028 25.451 13.675 37.037 2.279-13.105 2.469-26.211.19-39.317 6.648 11.586 15.385 21.653 25.451 30.01-2.279-13.105-6.647-25.451-13.295-37.037 10.256 8.547 21.842 15.005 34.378 19.563-6.648-11.586-15.005-21.653-25.261-30.39 12.535 4.559 25.641 6.648 38.936 6.648-10.066-8.547-21.462-15.195-33.998-19.943z" fill="#fff"/><path d="M308.832 61.729c0 11.586-4.179 27.541-20.513 27.541-19.753 0-19.753-22.222-19.753-26.781s0-28.11 20.323-28.11c18.423-.19 19.943 20.323 19.943 27.351zM268.946 0h-13.295v85.091l-.38 12.726h12.725l.38-10.636c1.33 2.089 3.039 4.558 6.838 7.218 6.078 4.179 12.345 4.558 15.764 4.558 9.687 0 19.183-4.179 24.881-12.156 3.609-4.558 6.838-12.156 6.838-25.831 0-15.575-4.748-22.602-8.357-26.591-6.458-7.408-15.385-9.117-22.412-9.117-16.145 0-21.273 8.927-23.172 12.156V0h.19zm76.543 64.578c0-6.268 0-28.68 21.083-28.68 15.574 0 19.373 13.296 19.373 26.021 0 5.128-.76 15.195-5.698 22.223-4.558 6.268-11.586 6.838-15.005 6.838-18.423-.19-19.753-17.854-19.753-26.401zm-12.536 60.4h13.106V90.03c3.799 6.268 11.396 10.636 21.652 10.636 16.904 0 32.289-11.586 32.289-37.987 0-26.211-14.435-36.658-29.63-36.658-5.698 0-17.473 1.709-24.121 12.916l-.19-11.776h-13.295l.379 11.586-.19 86.231z" fill="#090"/></svg>